<?xml version="1.0" standalone="no"?><!DOCTYPE svg PUBLIC "-//W3C//DTD SVG 1.1//EN" "http://www.w3.org/Graphics/SVG/1.1/DTD/svg11.dtd"><svg class="icon" height="512" viewBox="0 0 1024 1024" version="1.1" xmlns="http://www.w3.org/2000/svg"><path d="M894.688 280.976a40.5 40.5 0 0 0 4.563-3.931c7.666-7.66 12.066-18.273 12.066-29.115 0-10.841-4.399-21.454-12.066-29.124-7.66-7.66-18.279-12.053-29.116-12.053-10.844 0-21.456 4.393-29.122 12.053-7.666 7.67-12.06 18.283-12.06 29.124 0 10.84 4.394 21.453 12.06 29.115 7.666 7.67 18.279 12.07 29.122 12.07 4.943 0 9.837-0.924 14.43-2.649 40.136 67.265 61.275 143.907 61.275 222.892 0 240.224-195.436 435.661-435.66 435.661S74.52 749.582 74.52 509.358c0-215.493 160.611-400.9 373.597-431.275l-1.625-11.392c-105.53 15.05-202.498 67.76-273.04 148.423-34.887 39.892-62.142 85.096-81.009 134.36-19.53 50.996-29.432 104.788-29.432 159.884 0 60.365 11.824 118.927 35.144 174.06 22.522 53.25 54.764 101.071 95.83 142.136 41.064 41.066 88.885 73.307 142.135 95.83 55.133 23.319 113.696 35.143 174.06 35.143 60.365 0 118.927-11.823 174.06-35.143 53.25-22.523 101.07-54.764 142.136-95.83s73.308-88.886 95.83-142.136c23.319-55.133 35.143-113.695 35.143-174.06-0.001-80.911-21.616-159.431-62.661-228.382zM256.339 324.96v385.198c0 8.87 7.191 16.06 16.06 16.06h480.493c8.87 0 16.06-7.19 16.06-16.06V324.96c0-8.87-7.189-16.059-16.06-16.059H272.4c-8.869 0-16.06 7.19-16.06 16.06z m32.12 16.062h448.373v63.95H288.46v-63.95z m0 96.07h448.373v257.005H288.46V437.091z m31.718-80.413a16.172 16.172 0 0 0-11.356 4.702 16.173 16.173 0 0 0-4.704 11.357 16.16 16.16 0 0 0 4.704 11.355 16.168 16.168 0 0 0 11.356 4.707c4.226 0 8.368-1.716 11.355-4.707a16.162 16.162 0 0 0 4.705-11.355c0-4.228-1.715-8.366-4.705-11.357a16.168 16.168 0 0 0-11.355-4.702z m48.056 0a16.172 16.172 0 0 0-11.357 4.702 16.173 16.173 0 0 0-4.703 11.357 16.16 16.16 0 0 0 4.703 11.355 16.167 16.167 0 0 0 11.357 4.707 16.168 16.168 0 0 0 11.354-4.707 16.162 16.162 0 0 0 4.705-11.355 16.18 16.18 0 0 0-4.705-11.357 16.174 16.174 0 0 0-11.354-4.702z m48.303 0a16.176 16.176 0 0 0-11.358 4.702 16.173 16.173 0 0 0-4.703 11.357 16.16 16.16 0 0 0 4.703 11.355 16.168 16.168 0 0 0 11.358 4.707 16.168 16.168 0 0 0 11.354-4.707 16.163 16.163 0 0 0 4.707-11.355c0-4.228-1.717-8.366-4.707-11.357a16.174 16.174 0 0 0-11.354-4.702z m150.701 96.672c-8.074-3.67-17.596-0.1-21.266 7.975l-95.355 196.343c-3.67 8.075-0.1 17.595 7.975 21.266a15.99 15.99 0 0 0 6.636 1.443c6.104 0 11.94-3.499 14.63-9.419l95.355-196.342c3.67-8.073 0.1-17.595-7.975-21.266zM373.352 562.53l53.715-62.667c5.771-6.735 4.991-16.873-1.743-22.645-6.734-5.773-16.873-4.993-22.646 1.741l-62.673 73.119a16.06 16.06 0 0 0 0 20.904l62.673 73.118a16.022 16.022 0 0 0 12.202 5.609 15.994 15.994 0 0 0 10.444-3.867c6.734-5.772 7.514-15.912 1.743-22.646l-53.715-62.666z m249.248-83.57c-5.774-6.734-15.915-7.514-22.647-1.741-6.735 5.772-7.513 15.911-1.744 22.646l53.716 62.667-53.716 62.667c-5.769 6.735-4.991 16.873 1.744 22.646a15.99 15.99 0 0 0 10.443 3.866A16.04 16.04 0 0 0 622.6 646.1l62.671-73.118a16.058 16.058 0 0 0 0-20.904l-62.671-73.12z" /></svg>